<?xml version="1.0" encoding="utf-8"?>
<!-- Generator: Adobe Illustrator 16.0.0, SVG Export Plug-In . SVG Version: 6.00 Build 0)  -->
<!DOCTYPE svg PUBLIC "-//W3C//DTD SVG 1.1//EN" "http://www.w3.org/Graphics/SVG/1.1/DTD/svg11.dtd">
<svg version="1.1" id="_x37_0bb2b30-be60-4de4-9e4b-86e23973444e"
	 xmlns="http://www.w3.org/2000/svg" xmlns:xlink="http://www.w3.org/1999/xlink" x="0px" y="0px" width="1143.11px"
	 height="875.781px" viewBox="0 0 1143.11 875.781" enable-background="new 0 0 1143.11 875.781" xml:space="preserve">
<title>onboarding</title>
<ellipse opacity="0.1" fill="#00FF40" enable-background="new    " cx="849.67" cy="829.19" rx="115.799" ry="28.95"/>
<path opacity="0.1" fill="#00FF40" enable-background="new    " d="M35.25,604.66c-13.1,4.49-29,13.65-26.32,28.211
	c1.34,7.379,7.32,12.85,13,17.469c24.261,19.684,50.929,36.199,79.36,49.15c13.57,6.16,28,11.811,38.25,23.17s15,27.24,18.33,42.551
	c7.814,36.258,9.746,73.537,5.72,110.41c40.91,0.779,86.21-0.141,115.16-29.611c17.33-17.648,26.62-43.83,47-57.49
	c13.59-9.109,30.34-11.369,46.52-13.27c76.58-8.953,153.557-14.373,230.93-16.26c32.42-0.789,65.551-1.07,95.82-12.369
	c30.27-11.301,57.75-36,63.9-69.49c0.949-5.16,1.57-10.85,5.1-14.451c3.15-3.229,7.869-4,12.279-4.568l265.891-36
	c14.561-2,29.631-4.131,41.891-12.361c11.859-8,19.859-20.779,27.51-33.24c17.529-28.52,35.721-63,23.58-95.609
	c-9.711-26.061-35.811-41.07-60.75-50.39c-24.939-9.319-51.791-15.87-72.061-34.14c-30.84-27.8-37.68-73.95-46.369-115.36
	c-7.863-37.5-18.904-74.262-33-109.89c-12.441-31.34-27.59-62.23-50.17-86.62s-53.65-41.68-85.271-40.44
	c-41.299,1.64-77.629,33.83-119,29.83c-34.939-3.35-63.369-31.35-94.83-48.77C521.87-5.83,455.95-3.11,394.84,6.54
	c-64.8,10.21-130,28.08-182.5,68.27c-12,9.2-23.48,19.82-30.53,33.66c-10.8,21.23-9.87,47.1-15.28,70.69
	c-21.8,95-138.68,134.63-162.71,228.939c-8.54,33.48-2.22,69.791,13.45,100.73c16.85,33.311,50.7,47.51,68.05,76.1
	C73.72,595.519,50.61,599.39,35.25,604.66z"/>
<path fill="none" stroke="#535461" stroke-width="2" stroke-miterlimit="10" d="M870.151,836.89c0,0-10.48-72.199,21-119.721
	c13.355-19.846,19.91-43.49,18.68-67.379c-0.668-11.336-2.375-22.588-5.1-33.611"/>
<path fill="#78FD95" d="M924.469,586.089C923.26,594.58,904.36,617,904.36,617s-11.811-26.83-10.629-35.32
	c1.061-8.51,8.82-14.549,17.33-13.488c8.512,1.061,14.551,8.82,13.49,17.332C924.528,585.712,924.5,585.902,924.469,586.089
	L924.469,586.089z"/>
<path fill="#78FD95" d="M943.151,636.759c-5.641,6.461-33.691,15-33.691,15s4.641-29,10.271-35.42
	c5.635-6.467,15.447-7.141,21.914-1.504c6.467,5.635,7.141,15.447,1.506,21.914l0,0V636.759z"/>
<path fill="#78FD95" d="M930.549,716.96c-8.129,2.74-36.66-4-36.66-4s18.621-22.66,26.75-25.391
	c8.264-2.303,16.828,2.527,19.131,10.789C941.901,706.005,937.924,714.027,930.549,716.96z"/>
<path fill="#78FD95" d="M907.309,775.5c-7.549,4.07-36.809,2.201-36.809,2.201s14.52-25.471,22.07-29.541
	c7.549-4.07,16.969-1.25,21.039,6.301C917.68,762.009,914.86,771.429,907.309,775.5L907.309,775.5L907.309,775.5z"/>
<path fill="#78FD95" d="M876.95,648.791c5.24,6.789,32.74,17,32.74,17s-2.92-29.18-8.16-36c-5.246-6.789-15.002-8.037-21.789-2.791
	C872.952,632.248,871.704,642.001,876.95,648.791z"/>
<path fill="#78FD95" d="M850.67,717.589c7,4.91,36.311,6.41,36.311,6.41s-11.5-27-18.541-31.879
	c-6.957-5.016-16.664-3.443-21.68,3.516c-5.016,6.957-3.441,16.664,3.516,21.68C850.407,717.41,850.538,717.5,850.67,717.589
	L850.67,717.589z"/>
<path fill="#78FD95" d="M834.299,787.97c6.102,6,34.711,12.449,34.711,12.449s-6.779-28.529-12.891-34.529
	c-6.016-6.113-15.848-6.193-21.961-0.178c-6.115,6.016-6.193,15.848-0.178,21.961c0.104,0.107,0.211,0.213,0.318,0.316V787.97z"/>
<path fill="none" stroke="#535461" stroke-width="2" stroke-miterlimit="10" d="M871.01,834.599c0,0-38.84-61.76-29.27-118
	c4.174-23.545,0.6-47.809-10.191-69.148c-5.205-10.094-11.328-19.688-18.289-28.66"/>
<path fill="#B5FDA7" d="M819.059,583.32c2.32,8.26-5.869,36.41-5.869,36.41s-21.699-19.721-24-28
	c-2.33-8.256,2.473-16.84,10.73-19.17c8.256-2.33,16.84,2.473,19.17,10.73L819.059,583.32z"/>
<path fill="#B5FDA7" d="M856.661,622.08c-2.531,8.189-24.711,27.371-24.711,27.371s-7.5-28.34-5-36.541
	c2.533-8.195,11.229-12.787,19.426-10.254c8.195,2.531,12.787,11.229,10.254,19.424H856.661z"/>
<path fill="#B5FDA7" d="M877.62,700.519c-6.32,5.791-35.15,11.15-35.15,11.15s7.84-28.25,14.16-34
	c6.324-5.799,16.152-5.373,21.951,0.951c5.799,6.322,5.373,16.15-0.951,21.949L877.62,700.519z"/>
<path fill="#B5FDA7" d="M880.12,763.441c-5.25,6.779-32.76,16.93-32.76,16.93s3-29.17,8.199-36
	c5.088-6.906,14.811-8.379,21.715-3.291c6.906,5.088,8.379,14.809,3.291,21.715c-0.143,0.195-0.291,0.387-0.445,0.576V763.441z"/>
<path fill="#B5FDA7" d="M801.02,659.89c7.539,4.09,36.801,2.26,36.801,2.26s-14.48-25.49-22-29.57
	c-7.543-4.086-16.969-1.285-21.057,6.256C790.678,646.376,793.479,655.802,801.02,659.89z"/>
<path fill="#B5FDA7" d="M804.87,733.451c8.42,1.639,35.801-8.852,35.801-8.852s-21.451-20-29.871-21.629
	c-8.377-1.836-16.656,3.469-18.492,11.848c-1.834,8.379,3.471,16.658,11.848,18.492C804.393,733.363,804.631,733.41,804.87,733.451z
	"/>
<path fill="#B5FDA7" d="M818.42,804.429c8,3,36.779-2.689,36.779-2.689s-17.76-23.32-25.779-26.359
	c-8.17-2.611-16.91,1.895-19.521,10.064c-2.418,7.561,1.258,15.729,8.521,18.936V804.429z"/>
<linearGradient id="SVGID_1_" gradientUnits="userSpaceOnUse" x1="539.3301" y1="113.4902" x2="539.33" y2="818.9502" gradientTransform="matrix(1 0 0 -1 0 876.7803)">
	<stop  offset="0" style="stop-color:#808080;stop-opacity:0.25"/>
	<stop  offset="0.54" style="stop-color:#808080;stop-opacity:0.12"/>
	<stop  offset="1" style="stop-color:#808080;stop-opacity:0.1"/>
</linearGradient>
<polygon fill="url(#SVGID_1_)" points="285.63,57.83 285.63,85.21 285.63,763.291 793.03,763.291 793.03,85.21 793.03,57.83 "/>
<rect x="290.08" y="64.02" fill="#F6F7F9" width="498.5" height="26.89"/>
<g opacity="0.2">
	<rect x="290.08" y="64.02" fill="#00FF40" width="498.5" height="26.89"/>
</g>
<rect x="290.08" y="90.91" fill="#F6F7F9" width="498.5" height="666.189"/>
<circle fill="#F6F7F9" cx="303.19" cy="77.47" r="4.56"/>
<circle fill="#F6F7F9" cx="315.55" cy="77.47" r="4.56"/>
<circle fill="#F6F7F9" cx="327.91" cy="77.47" r="4.56"/>
<g opacity="0.2">
	<rect x="379.05" y="131.98" fill="#00FF40" width="320.55" height="12.55"/>
</g>
<rect x="657.01" y="131.98" fill="#00FF40" width="42.59" height="12.55"/>
<g opacity="0.2">
	<rect x="337.61" y="203.47" fill="#00FF40" width="403.439" height="144.49"/>
</g>
<rect x="450.83" y="256.13" fill="#F6F7F9" width="232.709" height="12.55"/>
<rect x="450.83" y="282.75" fill="#F6F7F9" width="120.729" height="12.55"/>
<rect x="657.01" y="320.77" fill="#00FF40" width="42.59" height="12.55"/>
<circle fill="#F6F7F9" cx="386.28" cy="275.71" r="22.81"/>
<g opacity="0.2">
	<rect x="337.61" y="388.46" fill="#00FF40" width="403.439" height="144.491"/>
</g>
<rect x="450.83" y="441.121" fill="#F6F7F9" width="232.709" height="12.549"/>
<rect x="450.83" y="467.74" fill="#F6F7F9" width="120.729" height="12.551"/>
<rect x="657.01" y="505.759" fill="#00FF40" width="42.59" height="12.551"/>
<circle fill="#F6F7F9" cx="386.28" cy="460.699" r="22.81"/>
<g opacity="0.2">
	<rect x="337.61" y="573.451" fill="#00FF40" width="403.439" height="144.49"/>
</g>
<rect x="450.83" y="626.111" fill="#F6F7F9" width="232.709" height="12.549"/>
<rect x="450.83" y="652.73" fill="#F6F7F9" width="120.729" height="12.551"/>
<rect x="657.01" y="690.75" fill="#00FF40" width="42.59" height="12.551"/>
<circle fill="#F6F7F9" cx="386.28" cy="645.69" r="22.81"/>
<linearGradient id="SVGID_2_" gradientUnits="userSpaceOnUse" x1="1566.6724" y1="63.8945" x2="1566.6724" y2="678.9824" gradientTransform="matrix(-1 0 0 -1 1850.8291 864.6709)">
	<stop  offset="0" style="stop-color:#808080;stop-opacity:0.25"/>
	<stop  offset="0.54" style="stop-color:#808080;stop-opacity:0.12"/>
	<stop  offset="1" style="stop-color:#808080;stop-opacity:0.1"/>
</linearGradient>
<path fill="url(#SVGID_2_)" d="M163.55,454.4c-3.87,17.609-10.85,39.311-10.85,39.311c6.9,8.049,37,9.49,37,9.49l0.05-0.061h0.47
	c0.21,1.109,0.45,2.18,0.74,3.199c-0.053,1.008-0.104,2.027-0.15,3.061c-0.429,1.203-0.576,2.49-0.43,3.76
	c0.059,0.283,0.133,0.564,0.22,0.84c-0.72,15.941-1.23,32.941-0.79,42.76c0.003,2.783,0.288,5.557,0.85,8.281
	c0.521,2.078,0.815,4.207,0.88,6.35c0.49,14.369-3,38.51-3,38.51s0.09,0.33,0.14,0.5c-0.06,0.41-0.1,0.65-0.1,0.65
	c0.303,0.973,0.475,1.982,0.51,3c0.26,12.119-6.69,38.49-6.69,38.49s-5.62,40.549-4.82,56c0.026,1.232,0.116,2.465,0.27,3.689
	c1.72,12.85,4,48.73,4,48.73c0.399,0.592,0.836,1.156,1.31,1.689c-0.2,0.801-0.44,1.609-0.7,2.41
	c-2.69,8.088-3.827,16.609-3.35,25.119c0.07,1,0.15,2.092,0.25,3.191c1.15,13.24,33.18,5,35.29,3.459
	c0.72-0.529,0.21-5.33-0.78-11.42l33,8.15c0,0,23.4,3.461,34.53,0s10.74-13-5.18-14.57c-11.15-1.08-20-11.459-24.37-17.59
	c1.69-4.609,14.36-39.6,16.69-61.26c1.508-13.994,3.977-27.865,7.39-41.52l2.49-32.23l4.42-19l5.27-25.119
	c5.95-18.422,7.77-49.211,7.77-49.211l4.6-30.211c0.641-3.283,0.999-6.615,1.07-9.959c4.313,0.885,8.571,2.023,12.75,3.41
	c7.2-5.6-3-59.56-3-59.56s-4.91-34.08-9.07-65.15c9.53-1.43,19.86,0.81,19.86,0.81l60.43,1.33c1.256-1.646,2.341-3.415,3.24-5.28
	h2.59c0.321-0.447,0.574-0.939,0.75-1.46l1.07,0.2c3.928,0.908,7.79,2.081,11.56,3.51c0,0,19.061,2.3,16.181-17.69
	c-2.141-14.9-19.101-9.49-27.58-5.79l-1.07,0.49c-0.08-0.56-0.13-0.88-0.13-0.88l-2.729,0.5c-0.17-0.416-0.359-0.823-0.57-1.22
	c0,0-29.641-1.15-53.67-4.75c-17.09-2.56-30-12.33-36.07-17.75c-4.21-21.37-16.44-27.86-16.44-27.86
	c-6.79-0.34-12.91-3.33-16.67-5.64c-1.359-0.811-2.662-1.713-3.9-2.7l-0.66,0.38l-0.08-0.07c4.07-3.78,8.29-7.25,12-10.16l1.67-1.29
	c20.376-1.995,35.276-20.13,33.281-40.506c-0.385-3.937-1.398-7.788-3.001-11.404c-0.16-0.36-0.35-0.72-0.52-1.07
	c3.824-0.423,6.859-3.413,7.34-7.23c0.369-4.19-2.521-8.65-0.631-12.41c0.348-0.558,0.648-1.143,0.9-1.75
	c0.157-0.573,0.204-1.169,0.14-1.76c-0.282-3.583-2.106-6.868-5-9c-4.29-3.11-8.1-1.53-12.79-1.8c-5.42-0.31-10.79-1.62-16.13-2.5
	c-6.13-1-12.41-1.68-18.53-0.61s-12.11,4.07-15.66,9.17c-1.52,2.18-2.55,4.67-4,6.92c-1.63,2.6-3.74,4.85-5.61,7.27
	c-3.15,4.07-5.7,8.95-5.45,14.09c0.14,2.91,1.17,5.71,1.37,8.62c0.01,2.711-0.191,5.42-0.6,8.1c-0.31,3.454-0.111,6.934,0.59,10.33
	c0.141,1.063,0.546,2.074,1.18,2.94c0.713,0.765,1.607,1.339,2.6,1.67c1.038,0.41,2.104,0.744,3.19,1
	c-1.215,2.827-2.713,5.524-4.47,8.05l-1.62-1.68l-4.38,6.84l-0.17-0.46c-0.21,0.43-0.45,0.84-0.7,1.25l-0.45-1.25
	c-1.94,3.89-5.57,7.14-9.81,9.82c-11.46,7.2-27.45,10.18-27.45,10.18c-25.76,3.74-21,30.35-21,30.35s-10.93,47.48-14,76.83
	c-3.07,29.351,8.34,48.05,8.34,48.05L163.55,454.4z M286.4,367.62c1,3.27,1.88,6.37,2.63,9.08l-0.48,0.19
	c-0.55-2.51-1.3-5.73-2.12-9.27H286.4z M258.06,287.95l-0.14,0.09l0.13-0.13L258.06,287.95z M213.63,784.08
	c-1.26-7.529-3.14-16.619-4.3-22.049c0.82-2.67,1.91-6.75,3.19-12.82c2.88-13.611,4.6-61.77,4.6-61.77l6.72-40.461
	c6.14-15.539,7.48-34,7.48-34c2.47-6.52,8.18-46.43,9.09-52.84c-0.26,4.43-0.88,15.65-1.21,28.109c0,0.111,0,0.23,0,0.34
	c-0.25,9.41-0.32,19.5,0,27.871l0,0c0.09,2.35,0.21,4.58,0.37,6.639c0.05,0.531,0.08,1.08,0.1,1.621c0.72,21.699-9,49-9,49
	s-4.33,20.24-3.69,31.549c-0.007,2.031,0.282,4.053,0.86,6c0.287,0.902,0.451,1.836,0.49,2.781c0.18,10.82-6.21,33.529-7.84,39.1
	C216.93,760.49,214.28,779.201,213.63,784.08z"/>
<path fill="#4C4C78" d="M249.28,754.55c0,0,11.22,20.34,27,21.859c15.78,1.52,16.16,11,5.13,14.451c-11.03,3.449-34.22,0-34.22,0
	l-33.08-8.17c0,0,4-32.701,9.31-34.41C228.73,746.57,249.28,754.55,249.28,754.55z"/>
<path fill="#4C4C78" d="M208.97,754.89c0,0,8.37,37.641,6.28,39.17s-33.84,9.689-35-3.43c-0.1-1.09-0.18-2.15-0.24-3.16
	c-0.481-8.436,0.645-16.887,3.32-24.9c0.914-2.455,1.352-5.061,1.29-7.68C184.07,749.611,208.97,754.89,208.97,754.89z"/>
<path fill="#FFB9B9" d="M219.34,278.36c0,0,25.66,63,21.1,42.8c-3-13.42,16.51-31.23,30-41.7c6.87-5.34,12.19-8.77,12.19-8.77
	s-48.2-56.18-44.78-31.94c0.936,6.638,0.026,13.405-2.63,19.56C231.705,266.228,226.242,273.125,219.34,278.36z"/>
<path fill="#FFB9B9" d="M383.32,367.89c1.961-0.272,3.958-0.146,5.87,0.37c3.892,0.895,7.718,2.058,11.449,3.48
	c0,0,18.9,2.28,16-17.53c-2.12-14.78-18.92-9.42-27.33-5.74c-2.859,1.25-4.76,2.31-4.76,2.31L383.32,367.89z"/>
<path opacity="0.1" enable-background="new    " d="M383.32,367.89c1.961-0.272,3.958-0.146,5.87,0.37
	c2.05-5.19,0.489-17.48,0.159-19.79c-2.859,1.25-4.76,2.31-4.76,2.31L383.32,367.89z"/>
<path fill="#CBCDDA" d="M383.22,349.02l4.94-0.91c0,0,2.54,17-0.771,21.44H381.7L383.22,349.02z"/>
<path fill="#4C4C78" d="M284.07,380.01c0,0,15.12-9,16.92,2.37c1.8,11.37,4.19,30.9,4.19,30.9l4.18,24.81l5.42,49.72l-0.761,8.459
	c0,0-16.069-5.379-19.87-3.52c-3.8,1.861-6.85-20.859-6.85-20.859l-6.27-23.58l-1-50L284.07,380.01z"/>
<path opacity="0.1" enable-background="new    " d="M284.07,380.01c0,0,15.12-9,16.92,2.37c1.8,11.37,4.19,30.9,4.19,30.9
	l4.18,24.81l5.42,49.72l-0.761,8.459c0,0-16.069-5.379-19.87-3.52c-3.8,1.861-6.85-20.859-6.85-20.859l-6.27-23.58l-1-50
	L284.07,380.01z"/>
<path fill="#4C4C78" d="M292.2,321.45c0,0,15.689,17.68,39.5,21.25c23.81,3.57,53.189,4.7,53.189,4.7s7.41,13.26-3.279,27.38
	l-59.891-1.32c0,0-13.26-2.88-23.53,0L292.2,321.45z"/>
<path opacity="0.05" enable-background="new    " d="M292.2,321.45c0,0,15.689,17.68,39.5,21.25c23.81,3.57,53.189,4.7,53.189,4.7
	s7.41,13.26-3.279,27.38l-59.891-1.32c0,0-13.26-2.88-23.53,0L292.2,321.45z"/>
<path fill="none" stroke="#0000FF" stroke-miterlimit="10" d="M422.39,394.03"/>
<path opacity="0.1" enable-background="new    " d="M237.78,257.76c5.85,12.51,16,21.74,30.76,21.74c0.65,0,1.28,0,1.92,0
	c6.87-5.34,12.19-8.77,12.19-8.77s-48.2-56.18-44.78-31.94C238.92,246.16,240.13,252.19,237.78,257.76z"/>
<path fill="#FFB9B9" d="M231.8,241.62c-0.005,20.291,16.439,36.744,36.73,36.75c20.291,0.005,36.745-16.439,36.75-36.73
	c0.006-20.291-16.439-36.745-36.73-36.75l0,0c-20.247-0.05-36.7,16.323-36.75,36.57C231.8,241.513,231.8,241.566,231.8,241.62z"/>
<path fill="#CBCDDA" d="M209.35,466.13c0,0,81.94,7.23,85-3.23c3.06-10.459-8.36-38.78-8.36-38.78l3.66-39.55l0.14-1.52
	c0,0-10.24-42.78-9.9-46.16c0.35-3.07-16.53-39-20-46.31l-0.63-1.32l-0.65,0.38l-0.28,0.17l-4,2.34l-15.87-3.74l-19.1-10
	l-1.81,109.4L209.35,466.13z"/>
<path opacity="0.1" enable-background="new    " d="M251.94,290.55c0,0,5.61-1.52,7.8,4.09c0.844,2.397,1.847,4.735,3,7l2.19,13
	l4,20.53l2.94,91l-1.32,16.201l-7.32-13l-1.33-85v-10.6c-0.432-9.146-2.498-18.142-6.1-26.56l-1-2.39l-6.37-8.17L251.94,290.55z"/>
<path fill="#4C4C78" d="M253.08,289.41c0,0,5.61-1.52,7.8,4.09c0.845,2.397,1.847,4.735,3,7l2.19,13l4,20.53l2.95,91l-1.34,16.161
	l-7.32-13l-1.33-85v-10.6c-0.428-9.146-2.491-18.141-6.09-26.56l-1-2.39l-6.39-8.14L253.08,289.41z"/>
<path opacity="0.1" enable-background="new    " d="M229.13,265.89c0,0,19.39,20.54,26.23,23c0,0-3.42,15.59-6.84,18.63
	c0,0-20.35-20.75-24-22.43l-3-7.39L229.13,265.89z"/>
<path fill="#CBCDDA" d="M229.13,264.79c0,0,19.39,20.54,26.23,23c0,0-3.42,15.59-6.84,18.63c0,0-20.35-20.75-24-22.43l-3-7.39
	L229.13,264.79z"/>
<path opacity="0.1" enable-background="new    " d="M258.13,289.24l0.2,0.53l6.22,16.66l11.1,31.46c0,0,0.11,0.32,0.3,0.92
	c1.84,5.72,11.74,36.77,13.69,45.8l0.14-1.52c0,0-10.23-42.82-9.89-46.2c0.35-3.07-16.53-39-20-46.31c-0.55-0.38-1-0.7-1.28-0.94
	L258.13,289.24z"/>
<path fill="#4C4C78" d="M259.26,289.22l6.42,17.21l11.11,31.46c0,0,0.11,0.32,0.3,0.92c1.95,6.1,13.06,40.9,14,47.27
	c1,7,15,44.78,15,44.78l8,65.45c7.13-5.561-3-59-3-59s-11.41-79.28-14.11-105.649c-2.7-26.37-17.33-34.17-17.33-34.17
	c-6.73-0.34-12.79-3.3-16.52-5.59C261.782,291.094,260.489,290.199,259.26,289.22z"/>
<path opacity="0.1" enable-background="new    " d="M178.75,710.25c1.71,12.74,4,48.301,4,48.301c8,12,25.67,5.51,25.67,5.51
	s1.89-3.619,4.74-17.119c2.85-13.5,4.57-61.221,4.57-61.221l6.66-40.109c6.08-15.4,7.41-33.65,7.41-33.65
	c2.66-7,9.13-53.24,9.13-53.24s-2.67,41.449-1,63.311c1.67,21.859-8.74,51.34-8.74,51.34s-5.9,27.57-2.85,36.119
	c3.05,8.551-7.61,43.92-7.61,43.92c0.95,10.27,31.18,6.08,31.18,6.08s14.26-38.209,16.73-61.221
	c1.495-13.871,3.944-27.623,7.33-41.158l2.46-31.941l4.38-18.82l5.23-24.898c5.89-18.26,7.7-48.771,7.7-48.771l4.56-29.939
	c3-14.811-0.87-32.17-3.47-41.289c-1.12-3.932-2-6.34-2-6.34c-2.62,1.859-17.62,4-25.38,5.809c-4.26,0.975-8.641,1.313-13,1
	c-19.61-1.549-39.011-5.098-57.9-10.59l-2-0.6l-0.4,3.42l-0.94,8.16l-1.66,14.471c0,0-5.14,77.189-2.1,87.648
	c3.04,10.461-2.09,45.592-2.09,45.592c2.85,8.34-6.08,42.238-6.08,42.238S177.04,697.519,178.75,710.25z"/>
<path fill="#474463" d="M178.75,709.111c1.71,12.738,4,48.299,4,48.299c8,12,25.67,5.51,25.67,5.51s1.89-3.619,4.74-17.119
	c2.85-13.5,4.57-61.221,4.57-61.221l6.66-40.109c6.08-15.4,7.41-33.65,7.41-33.65c2.66-7,9.13-53.24,9.13-53.24
	s-2.67,41.451-1,63.311c1.67,21.859-8.74,51.34-8.74,51.34s-5.9,27.57-2.85,36.119c3.05,8.551-7.61,43.92-7.61,43.92
	c0.95,10.271,31.18,6.08,31.18,6.08s14.26-38.209,16.73-61.219c1.495-13.873,3.944-27.625,7.33-41.16l2.46-31.939l4.38-18.82
	l5.23-24.9c5.89-18.26,7.7-48.77,7.7-48.77l4.56-29.951c3-14.799-0.87-32.16-3.47-41.279c-1.12-3.93-2-6.34-2-6.34
	c-2.62,1.859-17.62,4-25.38,5.811c-4.26,0.975-8.641,1.311-13,1c-19.61-1.551-39.011-5.098-57.9-10.59l-2-0.602l-0.4,3.42
	l-0.94,8.16l-1.66,14.471c0,0-5.14,77.189-2.1,87.65c3.04,10.459-2.06,45.6-2.06,45.6c2.85,8.34-6.08,42.24-6.08,42.24
	S177.04,696.38,178.75,709.111z"/>
<path opacity="0.1" enable-background="new    " d="M231.8,241.62c-0.002,6.411,1.677,12.71,4.87,18.27c5.72,1,11.81-0.1,16.14-3.89
	c2.93-2.58,4.82-6.11,7.34-9.1c1.629-1.845,3.383-3.576,5.25-5.18c1.213-1.212,2.61-2.224,4.14-3c1.565-0.801,3.416-0.823,5-0.06
	c2,1.13,2.72,3.64,3.86,5.65c0.882,1.717,2.389,3.031,4.21,3.67c1.861,0.585,3.887-0.108,5-1.71c1.24-2.14,0.33-5.48,2.42-6.78
	c0.549-0.271,1.118-0.502,1.7-0.69c2.69-1.22,3-4.83,3.22-7.77c0.12-1.45,0.43-3.09,1.65-3.87c1.22-0.78,2.81-0.39,4.26-0.35
	c0.43,0.009,0.859-0.028,1.28-0.11c-8.22-18.551-29.923-26.926-48.474-18.706c-13.29,5.889-21.858,19.06-21.856,33.596L231.8,241.62
	z"/>
<path fill="#472727" d="M304.34,193.89c2.863,2.099,4.671,5.341,4.95,8.88c0.067,0.586,0.023,1.18-0.13,1.75
	c-0.253,0.602-0.55,1.183-0.891,1.74c-1.88,3.72,1,8.14,0.62,12.3c-0.499,4.056-3.914,7.121-8,7.18c-1.45,0-3-0.43-4.26,0.35
	c-1.26,0.78-1.53,2.42-1.65,3.87c-0.23,2.95-0.53,6.56-3.22,7.77c-0.581,0.196-1.149,0.43-1.7,0.7c-2.09,1.3-1.17,4.65-2.42,6.77
	c-1.108,1.608-3.137,2.306-5,1.72c-1.819-0.643-3.325-1.955-4.21-3.67c-1.15-2-1.84-4.52-3.86-5.65c-1.583-0.762-3.432-0.744-5,0.05
	c-1.529,0.776-2.926,1.789-4.14,3c-1.865,1.606-3.619,3.337-5.25,5.18c-2.52,3-4.41,6.52-7.35,9.1c-5.52,4.85-14,5.33-20.8,2.57
	c-0.981-0.332-1.867-0.898-2.58-1.65c-0.642-0.871-1.054-1.889-1.2-2.96c-0.691-3.367-0.89-6.816-0.59-10.24
	c0.407-2.647,0.607-5.322,0.6-8c-0.19-2.88-1.22-5.66-1.36-8.54c-0.25-5.09,2.28-9.93,5.4-14c1.86-2.4,3.95-4.63,5.56-7.2
	c1.4-2.23,2.42-4.7,3.93-6.86c3.52-5,9.46-8,15.52-9.09s12.29-0.4,18.37,0.6c5.29,0.88,10.61,2.17,16,2.48
	C296.31,192.32,300.09,190.75,304.34,193.89z"/>
<path opacity="0.1" enable-background="new    " d="M259.26,289.22l6.42,17.21l11.11,31.46c0,0,0.11,0.32,0.3,0.92l0,0l-14-46.91
	C261.755,291.092,260.476,290.197,259.26,289.22z"/>
<path fill="#FFB9B9" d="M189.87,486.099c0,0-0.67,20.811,4.94,26l14.92-28.139l-12.54-6.07L189.87,486.099z"/>
<path opacity="0.1" enable-background="new    " d="M155.03,493.701c6.85,8,36.64,9.41,36.64,9.41l29.53-46.48
	c0,0,7-4.85,20.09-26.67c13.09-21.82,12.69-38.64,12-51.19c-0.69-12.55-9-48.63-9-48.63c-1.27-8.12-19.66-59-19.66-59
	c-1.93,3.86-5.52,7.07-9.73,9.73c-11.35,7.11-27.22,10.02-27.22,10.02c-25.53,3.71-20.82,30.09-20.82,30.09
	s-0.31,102.57,1.29,114.83C169.75,448.07,155.03,493.701,155.03,493.701z"/>
<polygon fill="#CBCDDA" points="189.49,490.089 190.34,497.691 200.71,493.89 208.31,482.39 202.61,477.919 "/>
<path opacity="0.1" enable-background="new    " d="M189.85,460.621l5.42,0.549l52.28,5.221c8.388,0.842,16.854,0.428,25.12-1.23
	l24.23-4.85c-1.12-3.93-2-6.34-2-6.34c-2.62,1.859-17.62,4-25.38,5.811c-4.26,0.975-8.641,1.311-13,1
	c-19.634-1.545-39.058-5.094-57.97-10.59l-2.36,2.818L189.85,460.621z"/>
<g opacity="0.1">
	<path d="M294.3,454.259c0.175-0.086,0.346-0.184,0.51-0.289l0.05,0.141L294.3,454.259z"/>
	<path d="M183.26,651.121c0,0,8.94-33.9,6.08-42.24c0,0,5.14-35.131,2.09-45.59c-3.05-10.461,2.1-87.65,2.1-87.65l1.69-14.471
		l1-8.16l0.4-3.42c0,0,0.68,0.221,2,0.602l1.21,0.359l-0.28,1.34l-0.95,8.16l-1.69,14.469c0,0-5.13,77.182-2.1,87.65
		c3.03,10.471-2.08,45.59-2.08,45.59c2.85,8.34-6.08,42.24-6.08,42.24s-6.28,45.26-4.57,58s4,48.291,4,48.291
		c5.83,8.76,16.84,7.66,22.34,6.43c-0.06,0.15-0.1,0.23-0.1,0.23s-17.68,6.459-25.67-5.51c0,0-2.28-35.561-4-48.301
		C176.93,696.4,183.26,651.121,183.26,651.121z"/>
	<path d="M228.32,708.349c-3-8.549,2.86-36.119,2.86-36.119s10.44-29.471,8.73-51.34c-0.71-9.109-0.66-21.609-0.36-33.1
		c2.43-14.801,4.74-31.35,4.74-31.35s-2.67,41.439-0.95,63.309c1.72,21.871-8.74,51.34-8.74,51.34s-5.9,27.57-2.85,36.121
		c3.05,8.549-7.61,43.92-7.61,43.92c0.76,8.23,20.3,7.18,28,6.43l-0.29,0.789c0,0-30.23,4.191-31.17-6.08
		C220.72,752.269,231.36,716.89,228.32,708.349z"/>
</g>
<path fill="#4C4C78" d="M153.89,493.701c6.85,8,36.64,9.41,36.64,9.41l29.52-46.48c0,0,7-4.85,20.1-26.67
	c13.1-21.82,12.69-38.64,12-51.19c-0.69-12.55-9-48.63-9-48.63c-1.27-8.12-19.66-59-19.66-59c-1.93,3.86-5.52,7.07-9.73,9.73
	c-11.36,7.11-27.21,10.02-27.21,10.02c-25.53,3.71-20.82,30.09-20.82,30.09s-0.28,102.53,1.29,114.79
	C168.59,448.031,153.89,493.701,153.89,493.701z"/>
<path opacity="0.1" enable-background="new    " d="M218.05,296.35l6.42,2.42l-4.28,3l31.92,77c-0.74-12.55-9-48.63-9-48.63
	c-1.27-8.12-19.66-59-19.66-59c-1.93,3.86-5.52,7.07-9.73,9.73L218.05,296.35z"/>
<polygon opacity="0.1" enable-background="new    " points="210.36,433.52 177.7,425.11 173.42,438.37 206.79,446.5 "/>
<path opacity="0.1" enable-background="new    " d="M191.67,301.77c0,0,14.83,14,9.27,45.06s-14.54,64.88-14.54,64.88l24.15,66.879
	c0,0-16.83,17.541-25.1,19.67l-24.1-53.469c0,0-11.26-18.541-8.27-47.621c2.99-29.08,13.83-76.15,13.83-76.15
	S166.86,292.36,191.67,301.77z"/>
<path fill="#4C4C78" d="M190.55,301.77c0,0,14.83,14,9.27,45.06s-14.54,64.88-14.54,64.88l24.07,66.879c0,0-16.8,17.541-25.09,19.67
	l-24.1-53.469c0,0-11.26-18.541-8.27-47.621c2.99-29.08,13.83-76.15,13.83-76.15S165.72,292.36,190.55,301.77z"/>
<path opacity="0.1" enable-background="new    " d="M208.55,480.009c0,0-18.82,26-17.39,33c1.43,7,6.94,3.23,6.94,3.23l7.45-10.18
	l6.66-19C212.21,487.06,211.55,478.89,208.55,480.009z"/>
<path opacity="0.1" enable-background="new    " d="M210.88,480.009c0,0-18.83,26-17.4,33s6.94,3.23,6.94,3.23l7.41-10.17l6.66-19
	C214.49,487.07,213.84,478.89,210.88,480.009z"/>
<path fill="#474463" d="M209.73,480.009c0,0-18.82,26-17.39,33c1.43,7,6.94,3.23,6.94,3.23l7.41-10.17l6.66-19
	C213.35,487.07,212.7,478.89,209.73,480.009z"/>
</svg>
