<svg id="svg" version="1.1" xmlns="http://www.w3.org/2000/svg" xmlns:xlink="http://www.w3.org/1999/xlink" width="400" height="338.5" viewBox="0, 0, 400,338.5"><g id="svgg"><path id="path0" d="M24.500 127.749 L 24.500 231.000 68.750 231.000 L 113.000 231.000 113.000 207.527 L 113.000 184.055 111.657 180.402 C 110.919 178.394,110.209 176.487,110.080 176.167 C 109.951 175.846,108.990 173.258,107.945 170.417 C 106.899 167.575,105.351 163.375,104.505 161.083 C 102.142 154.686,101.509 152.968,99.590 147.750 C 98.613 145.092,97.708 142.654,97.579 142.333 C 97.352 141.769,94.753 134.722,91.093 124.750 C 90.118 122.092,89.214 119.654,89.085 119.333 C 88.956 119.013,87.828 115.975,86.579 112.583 C 85.330 109.192,83.641 104.617,82.827 102.417 C 82.013 100.217,80.476 96.054,79.410 93.167 C 78.345 90.279,77.223 87.242,76.917 86.417 C 76.337 84.855,73.153 76.233,70.085 67.917 C 69.104 65.258,67.404 60.646,66.308 57.667 C 65.212 54.688,64.210 51.987,64.081 51.667 C 63.952 51.346,62.949 48.646,61.853 45.667 C 56.727 31.746,55.271 27.796,54.693 26.250 L 54.070 24.583 39.285 24.541 L 24.500 24.498 24.500 127.749 M74.500 24.647 C 74.500 24.728,74.695 25.309,74.934 25.938 C 75.420 27.220,79.828 39.134,81.340 43.250 C 81.878 44.717,82.500 46.404,82.721 47.000 C 84.394 51.502,89.806 66.157,92.692 74.000 C 93.788 76.979,94.791 79.679,94.920 80.000 C 95.050 80.321,96.065 83.058,97.177 86.083 C 100.199 94.306,102.933 101.715,105.417 108.417 C 106.641 111.717,108.547 116.873,109.654 119.875 C 110.761 122.877,112.573 127.790,113.680 130.792 C 114.787 133.794,116.592 138.688,117.690 141.667 C 118.788 144.646,119.793 147.346,119.922 147.667 C 120.141 148.213,121.276 151.290,126.190 164.667 C 127.284 167.646,128.285 170.346,128.415 170.667 C 128.544 170.987,129.672 174.025,130.921 177.417 C 132.170 180.808,133.856 185.383,134.667 187.583 C 135.478 189.783,137.123 194.246,138.321 197.500 C 139.520 200.754,140.645 203.792,140.822 204.250 C 141.139 205.074,143.226 210.723,147.164 221.417 C 148.278 224.442,149.531 227.835,149.950 228.958 L 150.710 231.000 194.938 231.000 C 219.264 231.000,239.167 230.972,239.167 230.939 C 239.167 230.905,238.074 227.924,236.738 224.314 C 235.403 220.704,233.525 215.612,232.565 213.000 C 231.605 210.387,230.714 207.987,230.585 207.667 C 230.457 207.346,229.552 204.908,228.575 202.250 C 227.597 199.592,226.423 196.404,225.966 195.167 C 225.508 193.929,224.498 191.192,223.722 189.083 C 222.945 186.975,221.532 183.150,220.582 180.583 C 219.632 178.017,217.946 173.442,216.835 170.417 C 215.724 167.392,214.709 164.654,214.578 164.333 C 214.448 164.012,213.321 160.975,212.075 157.583 C 210.829 154.192,208.922 149.017,207.836 146.083 C 202.715 132.244,201.217 128.189,199.334 123.083 C 198.219 120.058,196.515 115.446,195.548 112.833 C 194.581 110.221,193.584 107.521,193.333 106.833 C 193.082 106.146,191.961 103.108,190.842 100.083 C 189.723 97.058,188.019 92.446,187.055 89.833 C 186.091 87.221,184.289 82.346,183.052 79.000 C 181.814 75.654,180.553 72.242,180.248 71.417 C 179.943 70.592,178.932 67.854,178.000 65.333 C 175.289 57.997,172.948 51.648,170.808 45.833 C 169.712 42.854,168.710 40.154,168.581 39.833 C 168.391 39.361,165.976 32.818,163.368 25.708 L 162.925 24.500 118.712 24.500 C 93.332 24.500,74.500 24.563,74.500 24.647 M237.095 24.648 C 236.999 24.803,230.578 42.120,229.919 44.000 C 229.711 44.596,229.459 45.271,229.359 45.500 C 229.260 45.729,228.270 48.392,227.159 51.417 C 226.048 54.442,224.351 59.054,223.387 61.667 C 222.423 64.279,220.625 69.154,219.392 72.500 C 218.159 75.846,217.044 78.846,216.915 79.167 C 216.786 79.487,215.729 82.337,214.567 85.500 C 213.405 88.662,211.955 92.597,211.346 94.244 L 210.238 97.237 211.619 100.994 C 212.378 103.060,213.144 105.125,213.321 105.583 C 213.497 106.042,214.442 108.592,215.422 111.250 C 216.401 113.908,217.689 117.396,218.285 119.000 C 218.881 120.604,220.141 124.017,221.085 126.583 C 223.654 133.568,225.449 138.428,227.915 145.083 C 229.138 148.383,231.050 153.558,232.165 156.583 C 236.836 169.260,238.200 172.948,238.420 173.500 C 238.549 173.821,239.557 176.540,240.660 179.542 C 241.764 182.544,243.570 187.456,244.673 190.458 C 245.777 193.460,246.785 196.179,246.913 196.500 C 247.042 196.821,247.947 199.258,248.924 201.917 C 249.901 204.575,251.171 208.025,251.746 209.583 C 252.321 211.142,253.157 213.410,253.604 214.623 C 254.051 215.837,254.454 216.830,254.500 216.829 C 254.546 216.829,255.022 215.611,255.559 214.123 C 256.096 212.634,256.708 210.967,256.920 210.417 C 257.132 209.867,258.328 206.642,259.578 203.250 C 260.828 199.858,262.517 195.283,263.331 193.083 C 265.625 186.881,268.134 180.079,268.772 178.333 C 269.090 177.463,269.455 176.487,269.583 176.167 C 269.808 175.602,271.610 170.716,275.823 159.250 C 276.934 156.225,277.950 153.487,278.081 153.167 C 278.280 152.676,280.002 148.009,281.833 143.000 C 282.084 142.313,283.081 139.612,284.048 137.000 C 285.015 134.387,286.719 129.775,287.834 126.750 C 288.950 123.725,290.875 118.513,292.113 115.167 C 293.352 111.821,294.613 108.408,294.916 107.583 C 295.219 106.758,296.106 104.358,296.887 102.250 C 297.668 100.142,299.327 95.642,300.574 92.250 C 301.821 88.858,302.947 85.821,303.078 85.500 C 303.208 85.179,304.000 83.042,304.837 80.750 C 305.674 78.458,306.503 76.208,306.679 75.750 C 306.855 75.292,307.855 72.592,308.902 69.750 C 313.171 58.167,314.980 53.267,317.330 46.917 C 318.687 43.250,320.641 37.962,321.671 35.167 C 322.702 32.371,324.013 28.827,324.586 27.292 L 325.628 24.500 281.407 24.500 C 255.772 24.500,237.148 24.562,237.095 24.648 M345.752 25.104 C 345.614 25.436,345.500 25.737,345.500 25.774 C 345.500 25.811,344.756 27.845,343.847 30.295 C 341.915 35.501,338.987 43.435,336.160 51.125 C 335.057 54.127,334.048 56.846,333.919 57.167 C 333.790 57.487,332.788 60.188,331.691 63.167 C 330.595 66.146,328.784 71.058,327.668 74.083 C 326.552 77.108,324.740 82.021,323.643 85.000 C 322.546 87.979,321.543 90.679,321.414 91.000 C 321.285 91.321,320.284 94.021,319.189 97.000 C 318.094 99.979,316.289 104.892,315.177 107.917 C 314.065 110.942,313.049 113.679,312.919 114.000 C 312.790 114.321,312.425 115.296,312.108 116.167 C 311.792 117.037,310.894 119.475,310.113 121.583 C 308.483 125.983,305.601 133.798,302.678 141.750 C 301.566 144.775,300.551 147.512,300.421 147.833 C 300.292 148.154,299.390 150.592,298.417 153.250 C 297.445 155.908,296.542 158.346,296.411 158.667 C 296.281 158.987,295.766 160.375,295.266 161.750 C 294.767 163.125,293.372 166.912,292.167 170.167 C 290.961 173.421,289.534 177.283,288.995 178.750 C 288.456 180.217,287.824 181.934,287.591 182.566 L 287.167 183.716 287.167 207.358 L 287.167 231.000 331.417 231.000 L 375.667 231.000 375.667 127.750 L 375.667 24.500 360.836 24.500 L 346.004 24.500 345.752 25.104 " stroke="none" fill="#fcfbfb" fill-rule="evenodd"></path><path id="path1" d="M0.208 280.248 C -0.171 280.681,-0.088 337.313,0.292 337.601 C 0.839 338.017,11.076 337.924,11.500 337.500 C 11.829 337.171,11.833 336.944,11.834 318.625 L 11.836 300.083 12.918 301.722 C 13.513 302.624,14.000 303.393,14.000 303.432 C 14.000 303.513,15.479 305.823,16.688 307.630 C 17.135 308.297,17.500 308.882,17.500 308.929 C 17.500 308.976,17.577 309.105,17.670 309.215 C 17.764 309.326,18.457 310.393,19.212 311.586 C 20.928 314.302,21.004 314.405,21.447 314.640 C 21.915 314.888,26.998 314.903,27.537 314.658 C 27.749 314.561,28.082 314.242,28.277 313.949 C 29.804 311.651,30.667 310.289,30.667 310.175 C 30.667 310.101,30.772 309.953,30.901 309.846 C 31.030 309.739,31.257 309.411,31.404 309.117 C 31.551 308.824,32.197 307.796,32.839 306.833 C 33.481 305.871,34.055 304.971,34.116 304.833 C 34.176 304.696,34.273 304.546,34.331 304.500 C 34.389 304.454,34.730 303.931,35.087 303.337 C 35.445 302.743,36.058 301.769,36.450 301.172 L 37.162 300.087 37.206 318.724 C 37.249 336.953,37.257 337.365,37.574 337.597 C 38.033 337.933,48.266 337.937,48.708 337.601 C 49.106 337.299,49.169 280.514,48.772 280.185 C 48.609 280.050,46.951 280.008,42.994 280.039 L 37.445 280.083 36.900 280.833 C 36.601 281.246,36.350 281.635,36.344 281.698 C 36.338 281.761,35.996 282.305,35.583 282.908 C 35.171 283.510,34.833 284.078,34.833 284.168 C 34.833 284.259,34.776 284.333,34.705 284.333 C 34.634 284.333,34.392 284.671,34.167 285.083 C 33.941 285.496,33.699 285.833,33.628 285.833 C 33.558 285.833,33.500 285.903,33.500 285.988 C 33.500 286.073,33.064 286.805,32.532 287.613 C 31.999 288.422,31.176 289.683,30.702 290.417 C 30.229 291.150,29.727 291.897,29.587 292.076 C 29.448 292.255,29.333 292.492,29.333 292.603 C 29.333 292.715,29.274 292.831,29.201 292.861 C 29.129 292.892,28.887 293.217,28.665 293.583 C 28.443 293.950,28.199 294.325,28.123 294.417 C 28.048 294.508,27.528 295.296,26.969 296.167 C 24.267 300.374,24.440 300.200,23.922 299.237 C 23.745 298.910,23.466 298.486,23.300 298.295 C 23.135 298.105,23.000 297.848,23.000 297.724 C 23.000 297.601,22.942 297.500,22.872 297.500 C 22.801 297.500,22.559 297.162,22.333 296.750 C 22.108 296.337,21.875 296.000,21.815 296.000 C 21.755 296.000,21.662 295.869,21.609 295.708 C 21.557 295.548,20.984 294.629,20.337 293.667 C 19.690 292.704,19.112 291.804,19.053 291.667 C 18.993 291.529,18.741 291.117,18.493 290.750 C 18.244 290.383,17.632 289.446,17.133 288.667 C 15.090 285.478,14.496 284.568,14.254 284.258 C 14.114 284.079,14.000 283.835,14.000 283.716 C 14.000 283.597,13.942 283.500,13.872 283.500 C 13.801 283.500,13.559 283.162,13.333 282.750 C 13.108 282.337,12.866 282.000,12.795 282.000 C 12.724 282.000,12.662 281.906,12.656 281.792 C 12.650 281.677,12.399 281.246,12.100 280.833 L 11.555 280.083 5.986 280.047 C 1.334 280.016,0.382 280.049,0.208 280.248 M115.704 280.208 C 115.459 280.510,115.000 281.661,114.999 281.979 C 114.998 282.128,114.893 282.451,114.765 282.697 C 114.636 282.943,114.482 283.393,114.423 283.697 C 114.363 284.001,114.248 284.400,114.168 284.583 C 114.027 284.906,113.210 287.456,111.925 291.583 C 111.583 292.683,111.243 293.733,111.170 293.917 C 111.096 294.100,110.684 295.375,110.253 296.750 C 109.300 299.789,108.888 301.082,108.417 302.500 C 108.048 303.611,107.938 303.953,106.578 308.250 C 106.143 309.625,105.508 311.612,105.166 312.667 C 104.825 313.721,104.377 315.146,104.171 315.833 C 103.965 316.521,103.738 317.201,103.665 317.346 C 103.593 317.490,103.369 318.202,103.167 318.929 C 102.966 319.656,102.733 320.321,102.650 320.408 C 102.568 320.495,102.500 320.692,102.500 320.846 C 102.500 320.999,102.013 322.603,101.417 324.410 C 100.821 326.218,100.333 327.824,100.333 327.981 C 100.333 328.138,100.268 328.338,100.188 328.425 C 100.109 328.512,99.880 329.146,99.682 329.833 C 99.483 330.521,99.257 331.233,99.181 331.417 C 99.104 331.600,98.874 332.313,98.668 333.000 C 98.462 333.688,98.115 334.761,97.897 335.385 C 97.458 336.641,97.397 337.331,97.700 337.633 C 98.008 337.941,109.556 337.918,109.812 337.609 C 109.986 337.400,110.584 335.591,111.254 333.250 C 111.665 331.812,112.151 330.187,112.399 329.417 L 112.614 328.750 122.951 328.707 L 133.287 328.664 133.537 329.374 C 134.016 330.736,134.505 332.419,134.502 332.698 C 134.501 332.854,134.568 333.023,134.652 333.074 C 134.736 333.126,134.855 333.468,134.917 333.833 C 134.978 334.199,135.097 334.541,135.181 334.592 C 135.265 334.644,135.333 334.832,135.333 335.009 C 135.333 335.403,135.981 337.336,136.209 337.625 C 136.383 337.845,147.681 337.945,148.236 337.732 C 148.659 337.570,148.555 336.691,147.861 334.552 C 147.509 333.469,146.865 331.458,146.428 330.083 C 145.992 328.708,145.498 327.171,145.331 326.667 C 145.163 326.162,144.675 324.625,144.245 323.250 C 143.815 321.875,143.404 320.600,143.330 320.417 C 143.257 320.233,142.922 319.183,142.585 318.083 C 142.249 316.983,141.910 315.933,141.832 315.750 C 141.755 315.567,141.419 314.517,141.085 313.417 C 140.752 312.317,140.413 311.267,140.333 311.083 C 140.252 310.900,140.137 310.501,140.077 310.197 C 140.018 309.893,139.864 309.443,139.735 309.197 C 139.607 308.951,139.502 308.640,139.501 308.506 C 139.500 308.290,139.229 307.437,138.837 306.417 C 138.766 306.233,138.539 305.521,138.333 304.833 C 138.126 304.146,137.669 302.683,137.317 301.583 C 136.965 300.483,136.514 299.058,136.315 298.417 C 136.115 297.775,135.894 297.100,135.823 296.917 C 135.753 296.733,135.566 296.171,135.409 295.667 C 135.252 295.162,134.990 294.337,134.827 293.833 C 134.210 291.923,133.197 288.703,132.835 287.500 C 132.628 286.813,132.395 286.100,132.317 285.917 C 132.051 285.289,131.672 284.083,131.669 283.859 C 131.668 283.735,131.561 283.397,131.432 283.109 C 131.303 282.820,131.066 282.133,130.905 281.583 C 130.401 279.857,131.116 280.000,122.995 280.000 C 117.500 280.000,115.835 280.048,115.704 280.208 M165.083 280.343 C 162.071 281.019,161.895 281.083,160.231 282.108 C 158.630 283.095,156.833 285.402,156.833 286.472 C 156.833 286.634,156.764 286.838,156.679 286.925 C 156.373 287.239,155.984 289.969,155.885 292.500 C 155.764 295.591,156.057 295.328,152.728 295.331 C 149.211 295.334,149.500 294.893,149.500 300.250 C 149.500 305.631,149.175 305.167,152.936 305.167 L 155.833 305.167 155.833 321.130 C 155.833 335.308,155.862 337.134,156.093 337.463 C 156.375 337.866,166.722 338.057,167.333 337.670 C 167.552 337.532,167.594 335.477,167.667 321.381 L 167.750 305.250 172.153 305.206 C 175.061 305.176,176.631 305.098,176.778 304.977 C 177.139 304.677,177.100 295.574,176.736 295.434 C 176.591 295.379,174.581 295.333,172.270 295.333 C 167.129 295.333,167.218 295.402,167.927 292.001 C 168.161 290.882,168.302 290.586,168.925 289.902 C 169.533 289.234,171.483 288.833,174.120 288.833 C 176.652 288.833,176.501 289.112,176.495 284.449 C 176.491 281.499,176.437 280.514,176.268 280.292 C 175.936 279.855,167.077 279.896,165.083 280.343 M270.645 280.276 C 270.221 280.788,270.314 337.285,270.740 337.597 C 271.221 337.948,294.412 337.939,296.500 337.587 C 299.168 337.137,299.901 336.985,300.075 336.845 C 300.171 336.768,300.510 336.649,300.828 336.581 C 301.146 336.513,301.521 336.398,301.661 336.326 C 301.802 336.253,302.509 335.924,303.232 335.594 C 305.908 334.373,310.167 330.750,310.167 329.694 C 310.167 329.603,310.229 329.503,310.305 329.472 C 310.610 329.350,311.901 326.603,312.173 325.500 C 312.987 322.194,312.997 321.979,312.989 308.833 C 312.981 295.612,312.785 292.627,311.848 291.423 C 311.773 291.328,311.668 291.063,311.613 290.833 C 311.530 290.483,310.989 289.436,310.250 288.192 C 309.352 286.680,307.315 284.658,305.496 283.473 C 303.281 282.030,300.765 281.049,297.669 280.422 L 295.587 280.000 283.231 280.000 C 271.940 280.000,270.854 280.024,270.645 280.276 M294.951 290.447 C 297.494 291.071,299.488 293.040,300.573 296.000 C 301.069 297.354,301.105 319.792,300.614 321.417 C 299.988 323.488,298.932 325.058,297.441 326.135 C 295.477 327.553,294.518 327.699,287.583 327.633 L 282.417 327.583 282.374 308.869 L 282.332 290.155 288.291 290.215 C 291.582 290.249,294.564 290.353,294.951 290.447 M123.125 294.951 C 123.240 295.198,123.333 295.497,123.333 295.616 C 123.333 295.735,123.474 296.264,123.647 296.791 C 123.819 297.318,124.165 298.425,124.415 299.250 C 124.666 300.075,124.968 301.050,125.087 301.417 C 125.359 302.257,126.080 304.680,126.350 305.667 C 126.464 306.079,126.619 306.488,126.695 306.575 C 126.771 306.662,126.833 306.868,126.833 307.033 C 126.833 307.197,126.974 307.764,127.145 308.291 C 127.955 310.784,128.313 311.964,128.421 312.500 C 128.486 312.821,128.596 313.158,128.667 313.250 C 128.737 313.342,128.873 313.754,128.969 314.167 C 129.065 314.579,129.378 315.667,129.666 316.583 C 130.434 319.035,130.500 319.344,130.277 319.430 C 130.170 319.470,126.821 319.484,122.833 319.460 L 115.583 319.417 115.632 318.917 C 115.659 318.642,115.858 317.854,116.074 317.167 C 116.290 316.479,116.520 315.654,116.586 315.333 C 116.651 315.012,116.763 314.675,116.833 314.583 C 116.904 314.492,117.040 314.079,117.137 313.667 C 117.365 312.688,118.148 310.010,118.330 309.583 C 118.408 309.400,118.550 308.950,118.645 308.583 C 118.741 308.217,118.931 307.542,119.068 307.083 C 119.205 306.625,119.437 305.837,119.583 305.333 C 119.730 304.829,119.962 304.042,120.099 303.583 C 120.236 303.125,120.426 302.450,120.522 302.083 C 120.617 301.717,120.759 301.267,120.837 301.083 C 121.014 300.669,121.898 297.640,122.552 295.208 C 122.775 294.380,122.845 294.348,123.125 294.951 M196.737 294.669 C 196.088 294.751,195.226 294.901,194.820 295.002 C 194.415 295.103,193.783 295.258,193.417 295.346 C 193.050 295.434,192.600 295.571,192.417 295.650 C 186.050 298.410,182.487 302.677,180.775 309.588 C 180.090 312.352,180.082 319.377,180.760 322.333 C 181.191 324.215,181.507 325.308,181.756 325.786 C 181.889 326.041,181.998 326.345,181.999 326.461 C 182.000 326.576,182.070 326.801,182.155 326.961 C 182.241 327.120,182.593 327.834,182.938 328.549 C 183.284 329.263,183.664 329.928,183.783 330.027 C 183.902 330.126,184.000 330.311,184.000 330.437 C 184.000 330.563,184.059 330.667,184.131 330.667 C 184.203 330.667,184.384 330.875,184.534 331.129 C 184.938 331.811,187.310 334.174,188.170 334.750 C 188.581 335.024,188.954 335.296,189.000 335.352 C 189.269 335.686,192.222 337.040,193.613 337.467 C 198.881 339.086,206.082 338.784,210.417 336.763 C 211.741 336.146,213.105 335.416,213.304 335.219 C 213.425 335.098,213.631 335.000,213.762 335.000 C 213.893 335.000,214.000 334.935,214.000 334.855 C 214.000 334.776,214.281 334.520,214.625 334.286 C 215.940 333.392,218.000 331.176,218.000 330.656 C 218.000 330.501,217.181 329.559,216.179 328.562 C 210.952 323.360,210.874 323.299,210.308 323.958 C 207.534 327.192,205.104 328.409,201.500 328.371 C 196.327 328.316,193.084 325.726,192.426 321.125 L 192.313 320.333 205.406 320.333 L 218.500 320.333 218.857 319.976 C 219.344 319.489,219.216 313.573,218.662 311.000 C 218.475 310.129,218.250 309.079,218.162 308.667 C 218.074 308.254,217.935 307.767,217.852 307.583 C 217.769 307.400,217.570 306.875,217.409 306.417 C 215.978 302.342,212.416 298.285,208.667 296.460 C 206.875 295.589,206.638 295.512,203.917 294.927 C 202.473 294.616,198.323 294.467,196.737 294.669 M239.794 294.743 C 238.157 294.979,237.669 295.101,236.000 295.696 C 234.997 296.054,235.074 296.018,233.443 296.897 C 231.012 298.208,228.926 300.122,227.307 302.528 C 225.927 304.576,224.727 307.494,224.303 309.832 C 224.211 310.337,224.072 311.087,223.995 311.500 C 223.816 312.447,223.817 319.110,223.995 320.333 C 224.069 320.837,224.246 321.850,224.388 322.583 C 225.305 327.310,227.928 331.845,231.167 334.305 C 231.487 334.549,231.787 334.790,231.833 334.842 C 231.972 334.999,234.503 336.500,234.631 336.501 C 234.696 336.502,234.975 336.620,235.250 336.764 C 240.954 339.756,253.354 338.645,257.611 334.760 C 257.717 334.663,258.055 334.400,258.361 334.176 C 260.028 332.956,261.591 331.053,261.436 330.435 C 261.305 329.913,255.074 323.858,254.527 323.721 C 254.198 323.638,254.025 323.719,253.709 324.100 C 252.812 325.181,251.744 326.221,251.099 326.638 C 250.724 326.881,250.379 327.119,250.333 327.167 C 250.287 327.214,249.838 327.412,249.333 327.606 C 244.415 329.498,238.839 327.963,236.947 324.196 C 236.603 323.511,235.833 320.935,235.833 320.468 C 235.833 320.394,241.753 320.333,248.988 320.333 C 263.941 320.333,262.570 320.490,262.755 318.763 C 262.867 317.713,262.582 312.268,262.399 311.972 C 262.348 311.889,262.236 311.318,262.150 310.703 C 261.974 309.436,261.418 307.445,260.885 306.167 C 260.266 304.682,259.052 302.468,258.798 302.361 C 258.726 302.331,258.667 302.226,258.667 302.129 C 258.667 301.625,256.307 299.190,254.583 297.914 C 250.916 295.200,245.175 293.970,239.794 294.743 M335.167 294.600 C 333.915 294.752,332.390 295.025,331.833 295.197 C 325.777 297.069,322.250 300.282,319.612 306.333 C 317.588 310.976,317.559 321.239,319.556 325.886 C 319.682 326.178,319.963 326.829,320.181 327.333 C 322.231 332.068,326.105 335.653,331.007 337.349 C 336.599 339.284,344.654 338.786,349.417 336.212 C 349.692 336.063,350.067 335.862,350.250 335.766 C 353.198 334.215,356.134 331.207,355.627 330.259 C 355.326 329.697,349.271 323.835,348.886 323.733 C 348.591 323.654,348.227 323.932,346.969 325.195 C 345.797 326.372,345.132 326.894,344.253 327.323 C 340.447 329.185,335.111 328.572,332.528 325.976 C 331.861 325.306,331.513 324.763,330.826 323.322 C 330.638 322.928,330.167 321.018,330.167 320.653 C 330.167 320.341,330.461 320.333,343.250 320.333 L 356.333 320.333 356.688 319.978 C 357.035 319.632,357.041 319.538,356.944 316.187 C 356.840 312.564,356.501 310.173,355.760 307.833 C 354.448 303.686,351.664 299.748,348.600 297.702 C 347.344 296.864,345.739 296.001,345.435 295.999 C 345.333 295.998,345.025 295.880,344.750 295.737 C 344.247 295.474,343.734 295.339,341.583 294.907 C 340.401 294.670,336.235 294.470,335.167 294.600 M72.333 294.769 C 71.468 294.872,68.609 295.527,68.417 295.667 C 68.325 295.733,68.049 295.835,67.803 295.894 C 65.469 296.451,62.161 298.843,59.589 301.833 C 58.359 303.263,56.815 306.777,56.331 309.250 C 56.223 309.800,56.072 310.550,55.996 310.917 C 55.524 313.183,55.681 320.807,56.250 323.250 C 56.810 325.654,58.006 328.821,58.705 329.750 C 58.774 329.842,59.269 330.517,59.806 331.250 C 60.883 332.723,63.216 335.000,63.648 335.000 C 63.727 335.000,63.882 335.108,63.991 335.239 C 64.100 335.371,64.466 335.624,64.803 335.801 C 65.141 335.979,65.780 336.320,66.225 336.558 C 70.412 338.802,77.389 339.172,82.718 337.432 C 83.891 337.049,86.961 335.616,87.167 335.356 C 87.212 335.298,87.625 334.994,88.083 334.680 C 90.293 333.170,93.495 328.932,93.501 327.511 C 93.502 327.367,93.622 327.025,93.768 326.750 C 94.229 325.883,94.290 323.578,93.858 323.347 C 93.499 323.155,91.494 322.795,89.083 322.491 C 88.350 322.399,87.487 322.255,87.167 322.172 C 86.846 322.089,85.856 321.937,84.966 321.834 C 82.809 321.583,82.687 321.649,82.423 323.209 C 82.223 324.398,81.049 326.021,79.573 327.152 C 76.335 329.633,70.641 328.124,68.855 324.312 C 67.819 322.100,67.225 314.981,67.842 312.167 C 68.877 307.450,70.565 305.492,74.034 304.985 C 78.232 304.371,81.643 306.432,82.596 310.156 C 83.038 311.881,83.519 312.254,84.767 311.840 C 85.033 311.752,85.925 311.602,86.750 311.507 C 87.575 311.413,88.962 311.218,89.833 311.074 C 90.704 310.930,91.970 310.745,92.647 310.662 C 94.072 310.487,94.500 310.197,94.500 309.404 C 94.500 308.750,94.070 306.953,93.739 306.225 C 93.607 305.936,93.500 305.609,93.500 305.498 C 93.500 305.387,93.232 304.801,92.905 304.195 C 89.253 297.433,81.145 293.718,72.333 294.769 M359.268 295.597 C 359.044 296.179,359.590 297.372,360.711 298.750 C 360.785 298.842,361.232 299.517,361.704 300.250 C 362.176 300.983,362.604 301.621,362.656 301.667 C 362.866 301.853,364.500 304.357,364.500 304.493 C 364.500 304.573,364.562 304.664,364.638 304.694 C 364.714 304.725,365.676 306.100,366.776 307.750 C 367.876 309.400,369.602 311.987,370.612 313.500 C 371.622 315.012,372.500 316.340,372.563 316.451 C 372.667 316.635,370.432 320.174,370.128 320.306 C 370.058 320.336,370.000 320.427,370.000 320.507 C 370.000 320.688,368.297 323.229,368.125 323.306 C 368.056 323.336,368.000 323.456,368.000 323.571 C 368.000 323.687,367.850 323.917,367.667 324.083 C 367.483 324.249,367.333 324.486,367.333 324.609 C 367.333 324.732,367.275 324.833,367.205 324.833 C 367.134 324.833,366.927 325.109,366.746 325.446 C 366.565 325.783,366.341 326.139,366.249 326.238 C 366.157 326.336,365.782 326.865,365.416 327.414 C 365.050 327.962,364.691 328.487,364.619 328.580 C 364.547 328.674,364.113 329.313,363.654 330.000 C 363.196 330.688,361.961 332.535,360.910 334.107 C 358.835 337.210,358.860 337.155,359.305 337.558 C 359.629 337.851,371.501 337.990,371.939 337.706 C 372.182 337.547,373.667 335.377,373.667 335.179 C 373.667 335.096,373.723 335.003,373.792 334.972 C 373.959 334.898,375.000 333.360,375.000 333.188 C 375.000 333.113,375.150 332.916,375.333 332.750 C 375.517 332.584,375.667 332.387,375.667 332.312 C 375.667 332.140,376.708 330.602,376.875 330.528 C 376.944 330.497,377.000 330.371,377.000 330.248 C 377.000 330.125,377.094 329.925,377.209 329.804 C 377.422 329.578,378.350 328.220,378.500 327.913 C 378.854 327.188,379.893 325.867,380.057 325.930 C 380.170 325.973,380.445 326.344,380.669 326.754 C 380.893 327.164,381.134 327.500,381.205 327.500 C 381.276 327.500,381.333 327.571,381.333 327.659 C 381.333 327.800,382.516 329.619,386.651 335.833 L 387.927 337.750 393.922 337.750 L 399.917 337.750 399.968 337.221 C 400.011 336.780,388.572 319.137,387.830 318.500 C 387.702 318.390,386.667 316.684,386.667 316.583 C 386.667 316.488,387.697 314.783,387.825 314.667 C 388.038 314.473,389.667 311.974,389.667 311.841 C 389.667 311.760,389.723 311.669,389.792 311.639 C 389.964 311.562,391.667 309.021,391.667 308.841 C 391.667 308.760,391.723 308.669,391.792 308.639 C 391.860 308.608,392.442 307.796,393.083 306.833 C 393.725 305.871,394.306 305.058,394.375 305.028 C 394.444 304.997,394.500 304.900,394.500 304.813 C 394.500 304.668,395.121 303.700,395.342 303.500 C 395.393 303.454,395.615 303.117,395.837 302.750 C 396.058 302.383,396.301 302.008,396.377 301.917 C 396.452 301.825,396.903 301.150,397.378 300.417 C 397.854 299.683,398.285 299.046,398.338 299.000 C 398.900 298.508,400.014 296.432,399.969 295.961 L 399.917 295.417 393.583 295.417 L 387.250 295.417 386.250 296.929 C 385.700 297.761,383.908 300.483,382.267 302.979 C 380.626 305.475,379.231 307.457,379.168 307.383 C 378.863 307.033,377.000 304.127,377.000 304.003 C 377.000 303.925,376.944 303.836,376.875 303.806 C 376.754 303.752,375.667 302.216,375.667 302.099 C 375.667 302.036,373.590 298.852,373.374 298.583 C 373.300 298.492,373.057 298.117,372.835 297.750 C 372.613 297.383,372.371 297.058,372.299 297.028 C 372.226 296.997,372.167 296.900,372.167 296.813 C 372.167 296.629,371.498 295.643,371.250 295.461 C 370.873 295.184,359.376 295.314,359.268 295.597 M201.051 305.015 C 204.307 305.508,206.374 307.864,206.925 311.710 L 207.038 312.503 199.644 312.460 C 192.359 312.417,192.251 312.412,192.294 312.083 C 192.420 311.124,192.694 309.778,192.812 309.531 C 192.887 309.376,193.124 308.885,193.340 308.439 C 194.681 305.672,197.404 304.463,201.051 305.015 M244.653 305.014 C 248.018 305.568,250.477 308.629,250.499 312.292 C 250.500 312.529,235.919 312.607,235.773 312.370 C 235.636 312.149,236.446 309.297,236.906 308.385 C 238.285 305.643,241.083 304.426,244.653 305.014 M338.986 305.022 C 342.300 305.591,344.169 307.825,344.789 311.958 L 344.870 312.500 337.528 312.500 C 333.490 312.500,330.154 312.444,330.114 312.375 C 330.075 312.306,330.178 311.605,330.343 310.817 C 331.273 306.375,334.454 304.243,338.986 305.022 " stroke="none" fill="#040404" fill-rule="evenodd"></path><path id="path2" d="M0.000 127.833 L 0.000 255.667 200.000 255.667 L 400.000 255.667 400.000 127.833 L 400.000 0.000 200.000 0.000 L 0.000 0.000 0.000 127.833 M54.396 25.208 C 54.830 26.442,59.135 38.127,59.416 38.833 C 59.544 39.154,60.547 41.854,61.645 44.833 C 62.743 47.813,64.500 52.575,65.550 55.417 C 66.599 58.258,68.408 63.171,69.569 66.333 C 70.730 69.496,71.787 72.346,71.918 72.667 C 72.145 73.224,74.594 79.862,78.407 90.250 C 79.382 92.908,80.286 95.346,80.415 95.667 C 80.543 95.987,81.445 98.425,82.417 101.083 C 83.390 103.742,84.292 106.179,84.420 106.500 C 84.654 107.083,86.584 112.314,90.569 123.167 C 91.730 126.329,92.786 129.179,92.914 129.500 C 93.043 129.821,93.948 132.258,94.925 134.917 C 95.903 137.575,97.189 141.063,97.785 142.667 C 98.873 145.597,101.066 151.550,103.740 158.833 C 104.530 160.987,105.284 163.012,105.414 163.333 C 105.544 163.654,106.561 166.392,107.674 169.417 C 108.788 172.442,110.441 176.919,111.349 179.367 L 113.000 183.817 113.000 207.492 L 113.000 231.167 68.667 231.167 L 24.333 231.167 24.333 127.750 L 24.333 24.333 39.211 24.333 L 54.088 24.333 54.396 25.208 M163.320 25.375 C 163.521 25.948,163.790 26.679,163.918 27.000 C 164.046 27.321,165.061 30.058,166.174 33.083 C 167.287 36.108,168.974 40.683,169.922 43.250 C 170.870 45.817,172.667 50.692,173.916 54.083 C 175.164 57.475,176.291 60.512,176.419 60.833 C 176.548 61.154,177.451 63.592,178.427 66.250 C 181.214 73.845,184.470 82.670,184.821 83.583 C 184.997 84.042,185.939 86.592,186.914 89.250 C 187.889 91.908,188.792 94.346,188.921 94.667 C 189.141 95.212,190.065 97.718,195.159 111.583 C 196.270 114.608,197.285 117.346,197.414 117.667 C 197.543 117.987,198.172 119.675,198.811 121.417 C 199.450 123.158,200.347 125.596,200.804 126.833 C 201.260 128.071,202.547 131.558,203.662 134.583 C 204.778 137.608,206.324 141.788,207.099 143.872 C 207.874 145.955,208.798 148.468,209.153 149.455 C 209.508 150.442,209.877 151.438,209.974 151.667 C 210.071 151.896,211.047 154.521,212.144 157.500 C 214.034 162.635,215.590 166.855,220.190 179.333 C 221.288 182.313,222.292 185.012,222.421 185.333 C 222.549 185.654,223.336 187.792,224.168 190.083 C 225.001 192.375,225.790 194.512,225.921 194.833 C 226.052 195.154,227.179 198.192,228.426 201.583 C 229.673 204.975,231.332 209.475,232.113 211.583 C 232.894 213.692,233.782 216.092,234.085 216.917 C 234.389 217.742,235.026 219.467,235.502 220.750 C 235.977 222.033,236.991 224.771,237.754 226.833 C 238.517 228.896,239.192 230.715,239.255 230.875 C 239.363 231.152,237.190 231.167,195.038 231.167 L 150.707 231.167 150.527 230.708 C 150.427 230.456,149.327 227.475,148.081 224.083 C 146.835 220.692,145.710 217.654,145.580 217.333 C 145.451 217.012,144.324 213.975,143.076 210.583 C 141.829 207.192,140.169 202.692,139.387 200.583 C 138.606 198.475,137.719 196.075,137.416 195.250 C 134.722 187.907,133.277 183.991,133.080 183.500 C 132.856 182.941,132.000 180.621,127.174 167.500 C 125.977 164.246,124.854 161.208,124.678 160.750 C 124.267 159.682,118.776 144.809,114.308 132.667 C 113.212 129.688,112.211 126.987,112.083 126.667 C 111.956 126.346,111.055 123.908,110.083 121.250 C 109.110 118.592,108.208 116.154,108.079 115.833 C 107.859 115.288,106.935 112.782,101.841 98.917 C 100.730 95.892,99.715 93.154,99.586 92.833 C 99.358 92.266,97.470 87.157,93.333 75.917 C 89.311 64.990,87.309 59.572,87.079 59.000 C 86.950 58.679,85.935 55.942,84.823 52.917 C 83.711 49.892,81.906 44.979,80.811 42.000 C 79.716 39.021,78.715 36.321,78.586 36.000 C 78.457 35.679,77.556 33.242,76.585 30.583 C 75.613 27.925,74.709 25.504,74.576 25.203 C 74.442 24.902,74.333 24.583,74.333 24.494 C 74.333 24.391,90.252 24.333,118.644 24.333 L 162.955 24.333 163.320 25.375 M325.667 24.456 C 325.667 24.524,325.112 26.080,324.433 27.915 C 320.433 38.730,318.985 42.648,317.165 47.583 C 316.049 50.608,314.387 55.108,313.472 57.583 C 311.179 63.780,310.752 64.935,310.100 66.708 C 309.788 67.556,308.894 69.975,308.112 72.083 C 307.330 74.192,305.671 78.692,304.425 82.083 C 303.179 85.475,302.053 88.513,301.924 88.833 C 301.794 89.154,301.004 91.292,300.168 93.583 C 299.333 95.875,298.543 98.013,298.414 98.333 C 298.202 98.862,295.493 106.203,293.249 112.333 C 292.762 113.662,291.765 116.362,291.033 118.333 C 290.301 120.304,288.902 124.092,287.925 126.750 C 286.948 129.408,286.043 131.846,285.914 132.167 C 285.785 132.487,284.784 135.188,283.690 138.167 C 278.776 151.544,277.641 154.621,277.422 155.167 C 277.293 155.487,276.288 158.188,275.190 161.167 C 274.092 164.146,272.294 169.021,271.196 172.000 C 270.097 174.979,268.289 179.892,267.177 182.917 C 266.065 185.942,265.049 188.679,264.919 189.000 C 264.790 189.321,264.425 190.296,264.108 191.167 C 263.792 192.037,262.894 194.475,262.113 196.583 C 261.332 198.692,259.673 203.192,258.426 206.583 C 257.179 209.975,256.052 213.012,255.922 213.333 C 255.791 213.654,255.439 214.610,255.140 215.458 C 254.468 217.364,254.540 217.381,253.713 215.125 C 253.335 214.094,252.150 210.887,251.080 208.000 C 250.010 205.112,248.361 200.650,247.416 198.083 C 246.470 195.517,245.156 191.954,244.495 190.167 C 243.834 188.379,243.086 186.354,242.835 185.667 C 242.320 184.264,239.079 175.493,236.829 169.417 C 236.015 167.217,234.102 162.042,232.578 157.917 C 231.055 153.792,229.031 148.317,228.081 145.750 C 225.789 139.552,223.100 132.275,222.417 130.417 C 222.114 129.592,221.067 126.742,220.090 124.083 C 219.113 121.425,218.207 118.987,218.077 118.667 C 217.947 118.346,216.821 115.308,215.575 111.917 C 214.329 108.525,212.599 103.839,211.729 101.503 L 210.149 97.256 211.507 93.586 C 212.254 91.568,213.114 89.242,213.417 88.417 C 214.038 86.728,217.095 78.454,219.328 72.417 C 223.790 60.353,226.542 52.906,228.104 48.667 C 232.483 36.785,233.868 33.042,234.084 32.500 C 234.212 32.179,234.939 30.211,235.700 28.127 L 237.083 24.337 281.375 24.335 C 305.735 24.334,325.667 24.389,325.667 24.456 M375.667 127.750 L 375.667 231.167 331.333 231.167 L 287.000 231.167 287.000 207.545 L 287.000 183.924 287.406 182.837 C 287.630 182.239,288.823 179.012,290.058 175.667 C 293.459 166.450,297.178 156.379,298.828 151.917 C 299.642 149.717,301.331 145.142,302.583 141.750 C 303.834 138.358,305.002 135.208,305.178 134.750 C 305.354 134.292,306.477 131.254,307.674 128.000 C 312.500 114.879,313.356 112.559,313.580 112.000 C 313.777 111.509,315.222 107.593,317.916 100.250 C 318.219 99.425,319.106 97.025,319.888 94.917 C 320.670 92.808,322.329 88.308,323.575 84.917 C 324.821 81.525,325.948 78.487,326.078 78.167 C 326.209 77.846,327.224 75.108,328.335 72.083 C 329.446 69.058,331.132 64.483,332.082 61.917 C 333.032 59.350,334.724 54.775,335.842 51.750 C 336.960 48.725,338.058 45.762,338.283 45.167 C 338.507 44.571,338.752 43.896,338.826 43.667 C 339.003 43.120,341.782 35.587,342.085 34.833 C 342.214 34.512,343.118 32.075,344.095 29.417 C 345.072 26.758,345.904 24.527,345.945 24.458 C 345.986 24.390,352.690 24.333,360.843 24.333 L 375.667 24.333 375.667 127.750 " stroke="none" fill="#fc0404" fill-rule="evenodd"></path><path id="path3" d="" stroke="none" fill="#fc7474" fill-rule="evenodd"></path><path id="path4" d="M24.444 24.444 C 24.383 24.506,24.333 71.043,24.333 127.861 L 24.333 231.167 68.708 231.125 L 113.083 231.084 68.792 231.042 L 24.500 230.999 24.500 127.748 L 24.500 24.496 39.317 24.540 C 47.467 24.564,54.100 24.527,54.058 24.458 C 53.962 24.304,24.599 24.290,24.444 24.444 M74.333 24.458 C 74.333 24.571,104.148 24.571,146.917 24.457 C 155.717 24.434,142.985 24.397,118.625 24.374 C 94.265 24.352,74.333 24.390,74.333 24.458 M237.109 24.458 C 237.039 24.571,266.988 24.571,309.750 24.457 C 318.550 24.434,305.823 24.397,281.468 24.374 C 257.113 24.352,237.152 24.390,237.109 24.458 M345.942 24.458 C 345.872 24.572,356.458 24.570,370.417 24.456 C 373.350 24.432,369.061 24.394,360.885 24.373 C 352.709 24.351,345.985 24.390,345.942 24.458 M287.082 207.458 L 287.083 231.083 331.417 231.084 L 375.750 231.084 331.459 231.042 L 287.168 230.999 287.125 207.416 L 287.082 183.833 287.082 207.458 M172.792 231.125 C 185.006 231.149,204.994 231.149,217.208 231.125 C 229.423 231.101,219.429 231.082,195.000 231.082 C 170.571 231.082,160.577 231.101,172.792 231.125 " stroke="none" fill="#fc7c7c" fill-rule="evenodd"></path></g></svg>